<?xml version="1.0" encoding="utf-8"?>
<!-- Generator: Adobe Illustrator 13.0.0, SVG Export Plug-In  -->
<!DOCTYPE svg PUBLIC "-//W3C//DTD SVG 1.1//EN" "http://www.w3.org/Graphics/SVG/1.1/DTD/svg11.dtd" [
	<!ENTITY ns_flows "http://ns.adobe.com/Flows/1.0/">
]>
<svg version="1.1"
	 xmlns="http://www.w3.org/2000/svg" xmlns:xlink="http://www.w3.org/1999/xlink" xmlns:a="http://ns.adobe.com/AdobeSVGViewerExtensions/3.0/"
	 x="0px" y="0px" width="415px" height="243px" viewBox="40 83.006 415 243" enable-background="new 40 83.006 415 243"
	 xml:space="preserve">
<defs>
</defs>
<rect x="40" y="83.006" display="none" fill="#FFFFFF" width="415" height="291.991"/>
<g>
	<defs>
		<rect id="SVGID_1_" width="500" height="500"/>
	</defs>
	<clipPath id="SVGID_2_">
		<use xlink:href="#SVGID_1_"  overflow="visible"/>
	</clipPath>
	<path clip-path="url(#SVGID_2_)" fill="#494089" d="M96.526,159.568c-17.628,5.689-38.044,14.549-41.311,32.781
		c-2.128,11.879,4.772,24.313,15.163,30.449c5.073,2.997,11.299,5.105,13.953,10.365c4.123,8.173-3.286,17.544-11.109,22.297
		c-7.823,4.753-17.366,8.523-20.927,16.955c-2.348,5.558-1.428,12.031,0.896,17.599c8.522,20.418,33.37,29.36,55.468,28.268
		c22.098-1.091,43.057-9.701,64.734-14.133c74.439-15.222,152.487,19.327,226.798,3.495c11.564-2.465,23.212-6.32,32.144-14.067
		c10.066-8.732,15.783-21.907,16.645-35.206c0.823-12.687-3.675-26.973-15.03-32.69c-6.637-3.341-14.567-3.205-21.771-1.387
		c-4.6,1.16-9.121,2.978-13.866,3.009c-4.744,0.03-9.965-2.346-11.34-6.887c-1.445-4.776,1.85-9.705,5.627-12.963
		c7.686-6.626,17.961-9.936,24.94-17.301c6.716-7.087,9.542-17.652,7.263-27.146c-2.279-9.495-9.594-17.624-18.796-20.89
		c-23.451-8.324-49,14.37-72.98,7.72c-1.78-0.494-3.653-1.255-4.591-2.848c-0.915-1.553-0.705-3.525-0.18-5.25
		c2.938-9.656,14.348-15.803,14.847-25.884c0.272-5.48-2.968-10.607-7.052-14.272c-28.063-25.18-68.723,4.772-97.335,14.227
		C191.664,131.356,143.704,144.342,96.526,159.568"/>
	<path clip-path="url(#SVGID_2_)" fill="#FFFFFF" d="M210.302,239.533c-0.002-0.005-0.001-0.011,0.004-0.014l6.754-3.992
		c0.005-0.003,0.007-0.01,0.005-0.015c0,0-0.742-2.003-1.241-3.062c-0.499-1.058-1.027-2.059-1.583-2.999
		c-1.148-1.942-3.893-5.302-3.893-5.302c-0.003-0.005-0.01-0.006-0.015-0.003l-6.754,3.993c-0.005,0.002-0.011,0.001-0.013-0.004
		l-8.885-15.03c-0.003-0.005-0.009-0.007-0.014-0.004c0,0-2.386,1.095-3.571,1.668c-1.184,0.573-2.341,1.193-3.469,1.86
		c-1.067,0.631-2.074,1.289-3.02,1.976c-0.949,0.687-2.902,2.157-2.902,2.157c-0.004,0.003-0.005,0.01-0.003,0.015l8.885,15.03
		c0.003,0.005,0.001,0.011-0.004,0.014l-13.431,7.939c-0.005,0.002-0.01,0.001-0.01-0.005l-3.861-50.743
		c-0.001-0.005-0.006-0.01-0.011-0.01c0,0-5.028-0.258-7.392,0.251c-2.364,0.51-6.956,2.274-6.956,2.274
		c-0.005,0.002-0.009,0.008-0.009,0.013l5.18,69.507c0.001,0.005,0.005,0.012,0.01,0.015l1.607,0.808
		c0.005,0.003,0.013,0.003,0.018,0L197.31,247.2c0.005-0.002,0.011,0,0.013,0.004l7.773,13.148c0.002,0.005,0.009,0.008,0.014,0.005
		c0,0,2.386-1.095,3.572-1.668c1.183-0.573,2.34-1.193,3.469-1.859c1.064-0.63,2.072-1.289,3.019-1.977
		c0.947-0.686,2.901-2.157,2.901-2.157c0.004-0.003,0.005-0.011,0.002-0.016L210.302,239.533z"/>
	<path clip-path="url(#SVGID_2_)" fill="#FFFFFF" d="M338.896,233.708c-1.06-0.78-2.148-1.513-3.265-2.199
		c-1.057-0.649-2.109-1.232-3.157-1.747c-1.051-0.518-3.264-1.558-3.264-1.558c-0.006-0.003-0.012-0.001-0.015,0.004l-9.14,14.875
		c-0.003,0.005-0.009,0.006-0.015,0.003l-13.293-8.167c-0.004-0.003-0.004-0.007,0-0.01l43.064-27.116
		c0.004-0.002,0.006-0.009,0.004-0.014c0,0-2.121-4.566-3.675-6.419c-1.555-1.852-5.261-5.089-5.261-5.089
		c-0.004-0.003-0.012-0.004-0.016-0.001l-59.039,37.045c-0.004,0.003-0.008,0.01-0.008,0.015l0.036,1.8
		c0,0.005,0.004,0.012,0.008,0.015l31.259,19.207c0.005,0.003,0.006,0.008,0.004,0.013l-7.996,13.014
		c-0.003,0.005-0.002,0.013,0.002,0.016c0,0,2.084,1.599,3.143,2.378c1.061,0.779,2.149,1.513,3.266,2.199
		c1.055,0.647,2.106,1.229,3.157,1.748c1.049,0.516,3.263,1.557,3.263,1.557c0.006,0.002,0.012,0,0.015-0.004l7.996-13.015
		c0.003-0.005,0.009-0.007,0.013-0.004l6.687,4.108c0.004,0.003,0.011,0.002,0.015-0.003c0,0,1.425-1.591,2.128-2.527
		c0.703-0.936,1.341-1.87,1.913-2.8c1.181-1.923,2.869-5.92,2.869-5.92c0.002-0.005,0-0.01-0.004-0.013l-6.687-4.109
		c-0.004-0.003-0.006-0.009-0.003-0.013l9.14-14.876c0.004-0.004,0.003-0.011-0.002-0.014
		C342.038,236.086,339.955,234.487,338.896,233.708"/>
	<path clip-path="url(#SVGID_2_)" fill-rule="evenodd" clip-rule="evenodd" fill="#A37DFF" d="M284.469,218.336
		c0,19.037-15.432,34.469-34.469,34.469c-19.036,0-34.469-15.432-34.469-34.469c0-19.036,15.433-34.469,34.469-34.469
		C269.037,183.868,284.469,199.301,284.469,218.336"/>
	<path clip-path="url(#SVGID_2_)" fill-rule="evenodd" clip-rule="evenodd" fill="#CCBBFF" d="M215.807,214.045
		c10.226,1.454,27.417-5.849,32.928-6.918c11.203-2.174,22.71,0.415,34.128,0.793c-0.79-2.497-1.86-4.868-3.169-7.083
		c-4.199,0.174-8.625-0.555-12.86-0.678c-8.043-0.234-16.042,1.88-24.073,1.393c-3.711-0.225-12.065-3.475-19.662-4.754
		C219.211,201.647,216.612,207.566,215.807,214.045"/>
	<path clip-path="url(#SVGID_2_)" fill-rule="evenodd" clip-rule="evenodd" fill="#CCBBFF" d="M250,183.868
		c-3.502,0-6.881,0.526-10.065,1.498c4.318,2.465,12.973,3.349,14.982,3.618c3.61,0.484,7.532,0.657,10.631-1.256
		c0.043-0.027,0.085-0.058,0.128-0.086C260.972,185.235,255.647,183.868,250,183.868"/>
	<path clip-path="url(#SVGID_2_)" fill-rule="evenodd" clip-rule="evenodd" fill="#CCBBFF" d="M284.456,218.817
		c-9.931-2.509-20.444-2.712-30.453-0.526c-5.438,1.187-10.705,3.055-16.109,4.387c-6.794,1.676-13.799,2.486-20.796,2.431
		c-0.295-0.001-0.596-0.011-0.902-0.025c1.369,6.894,4.793,13.046,9.608,17.794c8.254-2.926,16.184-6.764,23.593-11.431
		c6.482-4.083,12.969-8.945,20.597-9.643c4.736-0.433,9.392,0.802,14.08,1.77C284.311,222.021,284.435,220.431,284.456,218.817"/>
	<path clip-path="url(#SVGID_2_)" fill-rule="evenodd" clip-rule="evenodd" fill="#CCBBFF" d="M282.631,229.439
		c-4.675-0.692-13.033,3.419-15.079,5.152c-1.826,1.548-3.365,3.437-5.338,4.794c-2.503,1.723-5.528,2.472-8.47,3.231
		c-5.938,1.532-11.834,3.233-17.676,5.099c-0.742,0.237-1.545,0.562-1.908,1.232c4.744,2.46,10.127,3.859,15.84,3.859
		c3.998,0,7.833-0.689,11.402-1.941c3.578-5.106,5.715-11.722,11.375-14.122c0.957-0.406,4.319-0.886,7.356-1.673
		C281.128,233.285,281.964,231.401,282.631,229.439"/>
	<path clip-path="url(#SVGID_2_)" fill-rule="evenodd" clip-rule="evenodd" fill="#FFFFFF" d="M352.926,320.837
		c-8.563-45.817-48.759-80.5-97.061-80.5s-88.498,34.683-97.06,80.5H352.926z"/>
	<path clip-path="url(#SVGID_2_)" fill-rule="evenodd" clip-rule="evenodd" fill="#90C9EA" d="M273.959,296.892
		c-0.455,3.461-5.816,5.608-11.975,4.796c-6.157-0.812-10.779-4.274-10.323-7.734s5.818-5.608,11.976-4.796
		C269.793,289.969,274.415,293.432,273.959,296.892"/>
	<path clip-path="url(#SVGID_2_)" fill-rule="evenodd" clip-rule="evenodd" fill="#ABC3FF" d="M196.593,159.586
		c0,7.042-5.708,12.75-12.75,12.75s-12.75-5.708-12.75-12.75s5.708-12.75,12.75-12.75S196.593,152.544,196.593,159.586"/>
	<path clip-path="url(#SVGID_2_)" fill-rule="evenodd" clip-rule="evenodd" fill="#79A1F2" d="M183.843,146.836
		c-2.267,0-4.391,0.598-6.235,1.635c0.091,0.155,0.193,0.299,0.311,0.419c1.289,1.3,4.358,1.356,6.071,1.438
		c2.506,0.119,5.033-0.212,7.421-0.986C189.292,147.774,186.68,146.836,183.843,146.836"/>
	<path clip-path="url(#SVGID_2_)" fill-rule="evenodd" clip-rule="evenodd" fill="#79A1F2" d="M193.593,153.656
		c0.421-0.146,0.849-0.3,1.231-0.524c-0.33-0.56-0.692-1.1-1.102-1.601c-1.272,0.57-2.543,1.139-3.815,1.709
		c-0.987,0.442-1.979,0.886-3.025,1.16c-1.54,0.404-3.152,0.429-4.744,0.417c-3.305-0.026-6.535-0.34-9.8-0.7
		c-0.79,1.66-1.245,3.509-1.245,5.469c0,0.927,0.104,1.83,0.292,2.7c0.673-0.264,1.264-0.703,1.877-1.091
		c1.629-1.031,3.468-1.673,5.288-2.306C183.564,157.146,188.579,155.401,193.593,153.656"/>
	<path clip-path="url(#SVGID_2_)" fill-rule="evenodd" clip-rule="evenodd" fill="#79A1F2" d="M195.561,154.561
		c-0.987,0.883-1.72,2.054-2.798,2.895c-1.134,0.885-2.394,1.61-3.734,2.136c-0.945,0.371-1.93,0.647-2.836,1.105
		c-0.337,0.171-0.691,0.406-0.774,0.774c-0.147,0.651,0.619,1.12,1.269,1.272c1.291,0.3,2.635,0.244,3.959,0.187l4.711-0.204
		c0.28-0.012,0.565-0.035,0.848-0.069c0.244-0.985,0.387-2.01,0.387-3.07C196.592,157.802,196.224,156.103,195.561,154.561"/>
	<path clip-path="url(#SVGID_2_)" fill-rule="evenodd" clip-rule="evenodd" fill="#79A1F2" d="M184.177,159.242
		c-2.268,0.455-4.482,1.176-6.583,2.146c-1.401,0.647-2.76,1.408-4.236,1.856c-0.419,0.127-1.007,0.176-1.665,0.207
		c0.753,2.369,2.176,4.438,4.05,5.982c0.131-0.156,0.259-0.315,0.38-0.476c1.907-2.534,3.202-5.728,5.955-7.302
		c0.501-0.286,1.043-0.513,1.478-0.891C183.992,160.387,184.311,159.803,184.177,159.242"/>
	<path clip-path="url(#SVGID_2_)" fill-rule="evenodd" clip-rule="evenodd" fill="#79A1F2" d="M195.357,165.034
		c-0.144-0.017-0.29-0.022-0.424-0.014l-8.167,0.452c-1.691,0.094-3.476,0.218-4.878,1.17c-1.08,0.735-1.802,1.877-2.492,2.987
		c-0.233,0.375-0.655,0.898-1.045,1.451c1.57,0.752,3.314,1.192,5.16,1.24c0.334-0.419,0.635-0.869,0.958-1.297
		c1.822-2.41,4.667-4.019,7.672-4.339c0.796-0.084,1.602-0.086,2.397-0.171C194.844,166.042,195.114,165.546,195.357,165.034"/>
	<path clip-path="url(#SVGID_2_)" fill-rule="evenodd" clip-rule="evenodd" fill="#618DE5" d="M195.543,164.649
		c0.328-0.756,0.583-1.55,0.76-2.374c-3.282,1.171-7.162,2.207-11.304,3.009c-4.197,0.813-8.221,1.302-11.727,1.434
		c0.469,0.692,1.004,1.335,1.596,1.921c3.231-0.204,6.809-0.674,10.511-1.391C189.032,166.541,192.492,165.651,195.543,164.649"/>
	<path clip-path="url(#SVGID_2_)" fill="#FFFFFF" d="M171.339,167.748c-4.569,0-8.297-0.729-8.723-2.925
		c-0.401-2.07,2.302-4.218,8.034-6.385c0.515-0.195,1.093,0.065,1.289,0.582c0.195,0.517-0.066,1.094-0.582,1.289
		c-5.805,2.194-6.834,3.843-6.777,4.134c0.212,1.094,7.414,2.361,20.419-0.159c5.457-1.057,10.486-2.522,14.158-4.127
		c4.205-1.838,4.891-3.11,4.844-3.35c-0.058-0.303-1.704-1.483-8.241-1.294c-0.536,0.022-1.012-0.418-1.028-0.97
		c-0.017-0.552,0.418-1.013,0.97-1.029c6.393-0.191,9.852,0.792,10.263,2.913c0.353,1.822-1.612,3.642-6.007,5.562
		c-3.804,1.662-8.981,3.175-14.579,4.259C181.585,166.983,176.021,167.748,171.339,167.748"/>
	<path clip-path="url(#SVGID_2_)" fill-rule="evenodd" clip-rule="evenodd" fill="#7B91FF" d="M390.18,188.228
		c-2.7,4.988-8.933,6.843-13.921,4.143c-4.988-2.7-6.843-8.933-4.144-13.921c2.7-4.989,8.934-6.843,13.922-4.143
		C391.024,177.006,392.88,183.239,390.18,188.228"/>
	<path clip-path="url(#SVGID_2_)" fill-rule="evenodd" clip-rule="evenodd" fill="#80C3FF" d="M386.036,174.306
		c-1.604-0.869-3.34-1.26-5.044-1.232c0.007,0.144,0.022,0.285,0.061,0.416c0.414,1.415,2.566,2.631,3.75,3.346
		c1.729,1.046,3.646,1.78,5.634,2.147C389.536,177.06,388.047,175.394,386.036,174.306"/>
	<path clip-path="url(#SVGID_2_)" fill-rule="evenodd" clip-rule="evenodd" fill="#80C3FF" d="M390.329,182.875
		c0.354,0.058,0.716,0.113,1.073,0.101c-0.02-0.523-0.069-1.044-0.167-1.557c-1.119-0.084-2.239-0.168-3.358-0.252
		c-0.868-0.065-1.741-0.131-2.588-0.338c-1.246-0.305-2.396-0.905-3.52-1.524c-2.331-1.285-4.499-2.746-6.675-4.253
		c-1.195,0.872-2.228,2.008-2.979,3.396c-0.356,0.657-0.628,1.336-0.829,2.026c0.579,0.07,1.166-0.015,1.749-0.054
		c1.549-0.106,3.098,0.145,4.63,0.394C381.887,181.502,386.108,182.188,390.329,182.875"/>
	<path clip-path="url(#SVGID_2_)" fill-rule="evenodd" clip-rule="evenodd" fill="#80C3FF" d="M391.375,184.271
		c-1.037,0.247-2.005,0.795-3.092,0.978c-1.143,0.192-2.313,0.223-3.464,0.081c-0.812-0.1-1.615-0.282-2.433-0.304
		c-0.303-0.008-0.646,0.022-0.846,0.251c-0.354,0.405,0.01,1.031,0.412,1.388c0.8,0.708,1.773,1.183,2.733,1.65
		c1.138,0.555,2.276,1.108,3.415,1.663c0.203,0.098,0.413,0.191,0.627,0.275c0.55-0.604,1.045-1.274,1.451-2.025
		C390.864,186.963,391.254,185.618,391.375,184.271"/>
	<path clip-path="url(#SVGID_2_)" fill-rule="evenodd" clip-rule="evenodd" fill="#80C3FF" d="M381.517,183.223
		c-1.781-0.548-3.626-0.886-5.486-1.004c-1.24-0.079-2.495-0.061-3.713-0.309c-0.345-0.071-0.78-0.262-1.259-0.492
		c-0.375,1.966-0.16,3.978,0.576,5.79c0.151-0.06,0.304-0.123,0.451-0.191c2.322-1.065,4.465-2.83,7.019-2.89
		c0.464-0.01,0.936,0.037,1.389-0.064C380.946,183.962,381.396,183.67,381.517,183.223"/>
	<path clip-path="url(#SVGID_2_)" fill-rule="evenodd" clip-rule="evenodd" fill="#80C3FF" d="M387.216,191.612
		c-0.096-0.067-0.197-0.126-0.295-0.173c-1.986-0.937-3.973-1.874-5.959-2.81c-1.234-0.583-2.546-1.179-3.904-1.042
		c-1.047,0.106-1.996,0.638-2.91,1.16c-0.31,0.176-0.809,0.385-1.298,0.627c0.824,1.134,1.892,2.115,3.182,2.857
		c0.396-0.169,0.782-0.372,1.176-0.551c2.215-1.009,4.847-1.058,7.098-0.132c0.596,0.245,1.168,0.553,1.764,0.797
		C386.466,192.129,386.848,191.882,387.216,191.612"/>
	<path clip-path="url(#SVGID_2_)" fill-rule="evenodd" clip-rule="evenodd" fill="#FFFFFF" d="M180.182,279.317l-13.057,24.771
		l-3.595-1.896c-1.923-1.014-2.66-3.395-1.646-5.316l9.385-17.806c1.015-1.924,3.395-2.661,5.319-1.646L180.182,279.317z"/>
	<path clip-path="url(#SVGID_2_)" fill-rule="evenodd" clip-rule="evenodd" fill="#FFFFFF" d="M343.794,303.571l-7.787-19.502
		l3.772-1.507c2.02-0.806,4.311,0.177,5.116,2.196l4.868,12.189c0.807,2.02-0.178,4.311-2.196,5.116L343.794,303.571z"/>
	<path clip-path="url(#SVGID_2_)" fill-rule="evenodd" clip-rule="evenodd" fill="#FFFFFF" d="M222.82,248.92l-22.744,16.332
		l-2.37-3.301c-1.268-1.765-0.865-4.225,0.902-5.494l16.348-11.739c1.766-1.268,4.225-0.865,5.493,0.901L222.82,248.92z"/>
	<path clip-path="url(#SVGID_2_)" fill-rule="evenodd" clip-rule="evenodd" fill="#FFFFFF" d="M325.871,275.971l-22.336-16.887
		l2.45-3.241c1.312-1.733,3.78-2.077,5.515-0.766l16.056,12.138c1.733,1.313,2.077,3.78,0.766,5.514L325.871,275.971z"/>
	<path clip-path="url(#SVGID_2_)" fill-rule="evenodd" clip-rule="evenodd" fill="#90C9EA" d="M223.909,265.707
		c1.75,3.447-3.119,9.435-10.875,13.371c-7.756,3.938-15.463,4.336-17.213,0.889c-1.75-3.446,3.119-9.435,10.875-13.372
		C214.452,262.657,222.159,262.26,223.909,265.707"/>
	<path clip-path="url(#SVGID_2_)" fill-rule="evenodd" clip-rule="evenodd" fill="#494089" d="M207.696,269.595
		c7.006-3.557,13.955-4.214,16.527-1.77c0.099-0.772,0.006-1.488-0.314-2.118c-1.75-3.447-9.457-3.049-17.213,0.888
		c-7.756,3.938-12.625,9.925-10.875,13.372c0.169,0.333,0.41,0.62,0.686,0.882C196.952,277.398,201.358,272.813,207.696,269.595"/>
	<path clip-path="url(#SVGID_2_)" fill-rule="evenodd" clip-rule="evenodd" fill="#90C9EA" d="M318.772,277.574
		c-1.375,2.201-6.505,1.476-11.456-1.621c-4.95-3.096-7.85-7.389-6.474-9.589c1.376-2.201,6.505-1.476,11.456,1.62
		C317.251,271.08,320.148,275.374,318.772,277.574"/>
	<path clip-path="url(#SVGID_2_)" fill-rule="evenodd" clip-rule="evenodd" fill="#494089" d="M310.921,269.599
		c4.472,2.797,7.257,6.564,6.743,8.891c0.479-0.21,0.857-0.513,1.108-0.914c1.376-2.201-1.521-6.495-6.474-9.591
		c-4.951-3.096-10.08-3.821-11.456-1.619c-0.133,0.213-0.214,0.449-0.269,0.698C302.712,266.124,306.875,267.069,310.921,269.599"/>
	<path clip-path="url(#SVGID_2_)" fill-rule="evenodd" clip-rule="evenodd" fill="#494089" d="M263.637,289.156
		c-6.158-0.812-11.519,1.336-11.975,4.796c-0.033,0.251-0.032,0.502-0.014,0.752c1.336-2.793,6.167-4.406,11.634-3.687
		c5.71,0.753,10.094,3.787,10.335,6.985c0.17-0.354,0.29-0.723,0.343-1.111C274.416,293.432,269.794,289.969,263.637,289.156"/>
	<path clip-path="url(#SVGID_2_)" fill-rule="evenodd" clip-rule="evenodd" fill="#90C9EA" d="M113.865,203.754
		c0,1.795-1.455,3.25-3.25,3.25s-3.25-1.455-3.25-3.25c0-1.795,1.455-3.25,3.25-3.25S113.865,201.959,113.865,203.754"/>
	<path clip-path="url(#SVGID_2_)" fill-rule="evenodd" clip-rule="evenodd" fill="#90C9EA" d="M299.489,114.753
		c-0.805,0-1.458-0.653-1.458-1.458c0-0.805,0.653-1.458,1.458-1.458c0.806,0,1.458,0.653,1.458,1.458
		C300.947,114.101,300.295,114.753,299.489,114.753"/>
	<path clip-path="url(#SVGID_2_)" fill-rule="evenodd" clip-rule="evenodd" fill="#90C9EA" d="M320.157,141.796
		c-0.805,0-1.458-0.653-1.458-1.458c0-0.805,0.653-1.458,1.458-1.458s1.458,0.653,1.458,1.458
		C321.615,141.143,320.962,141.796,320.157,141.796"/>
	<path clip-path="url(#SVGID_2_)" fill-rule="evenodd" clip-rule="evenodd" fill="#90C9EA" d="M76.615,189.253
		c-0.805,0-1.458-0.653-1.458-1.458c0-0.805,0.653-1.458,1.458-1.458s1.458,0.653,1.458,1.458
		C78.073,188.601,77.42,189.253,76.615,189.253"/>
	<path clip-path="url(#SVGID_2_)" fill-rule="evenodd" clip-rule="evenodd" fill="#FFFFFF" d="M285.119,165.963
		c0,1.037-0.84,1.877-1.877,1.877s-1.877-0.84-1.877-1.877c0-1.037,0.84-1.877,1.877-1.877S285.119,164.927,285.119,165.963"/>
	<path clip-path="url(#SVGID_2_)" fill-rule="evenodd" clip-rule="evenodd" fill="#FFFFFF" d="M363.992,252.214
		c0,1.036-0.84,1.877-1.877,1.877s-1.877-0.841-1.877-1.877c0-1.037,0.84-1.877,1.877-1.877S363.992,251.177,363.992,252.214"/>
	<path clip-path="url(#SVGID_2_)" fill-rule="evenodd" clip-rule="evenodd" fill="#FFFFFF" d="M419.369,255.337
		c0,1.036-0.84,1.877-1.877,1.877s-1.877-0.841-1.877-1.877c0-1.037,0.84-1.877,1.877-1.877S419.369,254.3,419.369,255.337"/>
	<path clip-path="url(#SVGID_2_)" fill-rule="evenodd" clip-rule="evenodd" fill="#FFFFFF" d="M123.992,282.714
		c0,1.036-0.84,1.877-1.877,1.877s-1.877-0.841-1.877-1.877c0-1.037,0.84-1.877,1.877-1.877S123.992,281.677,123.992,282.714"/>
	<path clip-path="url(#SVGID_2_)" fill-rule="evenodd" clip-rule="evenodd" fill="#FFFFFF" d="M232.369,146.836
		c0,1.037-0.84,1.877-1.877,1.877s-1.877-0.84-1.877-1.877c0-1.037,0.84-1.877,1.877-1.877S232.369,145.8,232.369,146.836"/>
	<polygon clip-path="url(#SVGID_2_)" fill-rule="evenodd" clip-rule="evenodd" fill="#FFFFFF" points="209.61,192.451 
		212.112,193.881 209.558,195.216 208.129,197.719 206.793,195.164 204.291,193.735 206.845,192.399 208.275,189.897 	"/>
	<polygon clip-path="url(#SVGID_2_)" fill-rule="evenodd" clip-rule="evenodd" fill="#FFFFFF" points="327.484,166.117 
		329.119,167.051 327.451,167.923 326.518,169.556 325.646,167.889 324.012,166.955 325.68,166.083 326.613,164.45 	"/>
	<polygon clip-path="url(#SVGID_2_)" fill-rule="evenodd" clip-rule="evenodd" fill="#FFFFFF" points="134.649,244.532 
		136.283,245.466 134.615,246.338 133.682,247.971 132.81,246.304 131.176,245.371 132.844,244.499 133.777,242.865 	"/>
	<polygon clip-path="url(#SVGID_2_)" fill-rule="evenodd" clip-rule="evenodd" fill="#FFFFFF" points="135.583,177.899 
		137.216,178.833 135.548,179.704 134.616,181.338 133.744,179.67 132.109,178.737 133.777,177.865 134.71,176.232 	"/>
	<polygon clip-path="url(#SVGID_2_)" fill-rule="evenodd" clip-rule="evenodd" fill="#FFFFFF" points="85.615,277.337 
		87.249,278.271 85.581,279.143 84.648,280.775 83.776,279.108 82.142,278.175 83.809,277.303 84.743,275.669 	"/>
	<polygon clip-path="url(#SVGID_2_)" fill-rule="evenodd" clip-rule="evenodd" fill="#FFFFFF" points="382.455,231.231 
		384.089,232.166 382.421,233.038 381.487,234.671 380.615,233.004 378.981,232.07 380.648,231.198 381.583,229.564 	"/>
	<polygon clip-path="url(#SVGID_2_)" fill-rule="evenodd" clip-rule="evenodd" fill="#FFFFFF" points="402.615,297.003 
		404.249,297.938 402.581,298.81 401.648,300.442 400.776,298.775 399.143,297.842 400.81,296.97 401.743,295.336 	"/>
</g>
</svg>
