<svg xmlns="http://www.w3.org/2000/svg" xmlns:xlink="http://www.w3.org/1999/xlink" width="96" height="96" viewBox="0 0 96 96">
  <defs>
    <filter id="Ellipse_10" x="0" y="0" width="96" height="96" filterUnits="userSpaceOnUse">
      <feOffset dy="3" input="SourceAlpha"/>
      <feGaussianBlur stdDeviation="3" result="blur"/>
      <feFlood flood-color="#2e8f32" flood-opacity="0.38"/>
      <feComposite operator="in" in2="blur"/>
      <feComposite in="SourceGraphic"/>
    </filter>
  </defs>
  <g id="clinic" transform="translate(-323 -122)">
    <g transform="matrix(1, 0, 0, 1, 323, 122)" filter="url(#Ellipse_10)">
      <circle id="Ellipse_10-2" data-name="Ellipse 10" cx="39" cy="39" r="39" transform="translate(9 6)" fill="#50d979"/>
    </g>
    <path id="Path_110" data-name="Path 110" d="M40.664,18.236,22.98,2.517a2.066,2.066,0,0,0-2.554,0L2.742,18.236a1.91,1.91,0,0,0-.2,2.751,1.91,1.91,0,0,0,2.751.2l.589-.786V39.26a1.856,1.856,0,0,0,1.965,1.965H35.359a1.856,1.856,0,0,0,1.965-1.965V20.4l.589.589a1.91,1.91,0,0,0,2.751-.2A1.678,1.678,0,0,0,40.664,18.236Zm-15.13,9.235H23.57v1.965A1.856,1.856,0,0,1,21.605,31.4a1.856,1.856,0,0,1-1.965-1.965V27.471H17.675a1.965,1.965,0,0,1,0-3.93H19.64V21.576a1.856,1.856,0,0,1,1.965-1.965,1.856,1.856,0,0,1,1.965,1.965v1.965h1.965a1.965,1.965,0,0,1,0,3.93Z" transform="translate(350.328 142.312)" fill="#fff"/>
  </g>
</svg>
