<svg xmlns="http://www.w3.org/2000/svg" width="290.029" height="287.84" viewBox="0 0 290.029 287.84">
  <g id="company" transform="translate(-894.442 -128)">
    <g id="Group_41" data-name="Group 41" transform="translate(36 -321)">
      <circle id="Ellipse_19" data-name="Ellipse 19" cx="52.5" cy="52.5" r="52.5" transform="translate(1032 449)" fill="#ffebb4"/>
      <path id="Polygon_3" data-name="Polygon 3" d="M24,0,48,41H0Z" transform="matrix(0.574, 0.819, -0.819, 0.574, 892.027, 469.082)" fill="#aad4fc"/>
      <path id="Polygon_4" data-name="Polygon 4" d="M24,0,48,41H0Z" transform="translate(1093.529 576.956) rotate(-11)" fill="#aad4fc"/>
    </g>
    <g id="Order_Confirmed_Two_Color" data-name="Order Confirmed_Two Color" transform="translate(809.182 164.28)">
      <rect id="Rectangle_41" data-name="Rectangle 41" width="142.26" height="175.91" transform="translate(152.61 41.72)" fill="#e1e9f6"/>
      <rect id="Rectangle_42" data-name="Rectangle 42" width="66.6" height="25.02" transform="translate(190.23 170.64)" fill="#fcbe40"/>
      <path id="Path_171" data-name="Path 171" d="M158,100.17s14.32,2.15,11.77,11.94A34.47,34.47,0,0,1,160.05,128v22L181,173.72l6.91-14,19.41,9s-14.81,35.4-11.24,48.93H169.77l-23.93-53.36,2.71-46Z" opacity="0.09"/>
      <path id="Path_172" data-name="Path 172" d="M191.39,167.78s11.4,1.65,4.59,13.57-11.91,49.51-32.17,40.41Z" fill="#f4a28c"/>
      <path id="Path_173" data-name="Path 173" d="M191.39,167.78s11.4,1.65,4.59,13.57-11.91,49.51-32.17,40.41Z" opacity="0.09"/>
      <path id="Path_174" data-name="Path 174" d="M147.37,106.76,140.7,130.3l13.24,2.75-.46-18.24Z" fill="#f4a28c"/>
      <path id="Path_175" data-name="Path 175" d="M153.75,118.8a8.86,8.86,0,0,1-4-3.1s-.34,4.47,4,9.44Z" fill="#ce8172" opacity="0.31"/>
      <path id="Path_176" data-name="Path 176" d="M161.08,107.44s-.66,7.44-2.76,12.1a3.76,3.76,0,0,1-5,1.86c-2.33-1.09-5.16-3.24-5.29-7.27L147,107.31a6.71,6.71,0,0,1,4.17-6.54C155.83,98.53,161.72,102.93,161.08,107.44Z" fill="#f4a28c"/>
      <path id="Path_177" data-name="Path 177" d="M147,131.61l7,1.44s28.8,17,27.78,39-15.07,47.75-15.07,47.75h-49S83.9,140.48,147,131.61Z" fill="#68b7fd"/>
      <rect id="Rectangle_43" data-name="Rectangle 43" width="14.64" height="26.48" transform="translate(183.267 153.694) rotate(21.82)" fill="#fcbe40"/>
      <path id="Path_178" data-name="Path 178" d="M139.42,146.09s15.54,4.11,15.79,24.28-1.53,33.45,14.56,32.17l-40.48,17.22H117.63s-7.21-16.46-8.3-34.84S127.45,143.26,139.42,146.09Z" opacity="0.09"/>
      <path id="Path_179" data-name="Path 179" d="M117.63,219.76l-1.99,31.8,63.57-1.79-12.56-30.01Z" fill="#24285b"/>
      <path id="Path_180" data-name="Path 180" d="M152.15,112.35s.45-2.84-1.72-3-2.83,3.94,0,4.84Z" fill="#f4a28c"/>
      <path id="Path_181" data-name="Path 181" d="M127.16,142.64s12.47-2.49,16.89,10.94.08,51.22,9.45,54.51,29.33-29.74,29.33-29.74-.19-10.75,7.1-13.82,2.69,13.05-1.15,16.89S174.77,229,145,228.07,103,153.78,127.16,142.64Z" fill="#f4a28c"/>
      <path id="Path_182" data-name="Path 182" d="M160.42,112.11,162,115.3a1.2,1.2,0,0,1-1.06,1.72h-2.91Z" fill="#f4a28c"/>
      <path id="Path_183" data-name="Path 183" d="M161.13,97.79s7.27,8.55-2.14,10.34-11.35,3.48-10.44,13,4.62,18.29-7.85,24.27-1.76,16-4,27.69-13.28,19.78-27.32,11.81-22.73-28.41-7.66-40.66,34-15.19,34-34.92S151.4,88.6,161.13,97.79Z" fill="#24285b"/>
      <path id="Path_185" data-name="Path 185" d="M32.34,0A32.34,32.34,0,1,1,0,32.34,32.34,32.34,0,0,1,32.34,0Z" transform="translate(190.49 84.13)" fill="#68b7fd"/>
      <circle id="Ellipse_16" data-name="Ellipse 16" cx="5.15" cy="5.15" r="5.15" transform="translate(165.37 52.18)" fill="#ffd200"/>
      <circle id="Ellipse_17" data-name="Ellipse 17" cx="5.15" cy="5.15" r="5.15" transform="translate(179.89 52.18)" fill="#68b7fd"/>
      <circle id="Ellipse_18" data-name="Ellipse 18" cx="5.15" cy="5.15" r="5.15" transform="translate(193.78 52.18)" fill="#24285b"/>
      <path id="Path_184" data-name="Path 184" d="M209.09,116.47l9.95,13.21,16.09-25.4" fill="none" stroke="#fff" stroke-linecap="round" stroke-linejoin="round" stroke-width="7"/>
    </g>
  </g>
</svg>
