<svg xmlns="http://www.w3.org/2000/svg" xmlns:xlink="http://www.w3.org/1999/xlink" width="96" height="96" viewBox="0 0 96 96">
  <defs>
    <filter id="Ellipse_10" x="0" y="0" width="96" height="96" filterUnits="userSpaceOnUse">
      <feOffset dy="3" input="SourceAlpha"/>
      <feGaussianBlur stdDeviation="3" result="blur"/>
      <feFlood flood-color="#2e8f32" flood-opacity="0.38"/>
      <feComposite operator="in" in2="blur"/>
      <feComposite in="SourceGraphic"/>
    </filter>
  </defs>
  <g id="factory" transform="translate(-323 -122)">
    <g transform="matrix(1, 0, 0, 1, 323, 122)" filter="url(#Ellipse_10)">
      <circle id="Ellipse_10-2" data-name="Ellipse 10" cx="39" cy="39" r="39" transform="translate(9 6)" fill="#50d979"/>
    </g>
    <g id="Group_36" data-name="Group 36" transform="translate(351.161 144.79)">
      <path id="Path_112" data-name="Path 112" d="M26.373,3.372c-.058.2-1.413,4.753-5.7,5.811a4.078,4.078,0,0,1-1.017.124A6.135,6.135,0,0,1,18.595,9.2a27.941,27.941,0,0,0-4.852-.554c-1.356,0-1.736.24-1.794.289A.829.829,0,0,1,10.7,7.91c.678-1.331,2.637-4.422,6.208-4.422a6.734,6.734,0,0,1,1.984.306,7.741,7.741,0,0,0,1.223.289,9.433,9.433,0,0,0,.959.05A4.951,4.951,0,0,0,24.943,2.62a.816.816,0,0,1,1.017-.207.83.83,0,0,1,.413.959Z" transform="translate(-1.493)" fill="#fff"/>
      <path id="Path_113" data-name="Path 113" d="M10.01,13.623H5.348a.825.825,0,0,0-.818.744L2.008,37.436a.831.831,0,0,0,.2.645.845.845,0,0,0,.62.273h9.7a.825.825,0,0,0,.827-.917L10.836,14.367A.839.839,0,0,0,10.01,13.623Z" transform="translate(0 -1.961)" fill="#fff"/>
      <path id="Path_114" data-name="Path 114" d="M33.819,33.2a13.722,13.722,0,0,1,2.44-1.656V22.89a.824.824,0,0,0-.827-.827H15.525l.7,6.384V26.51a.829.829,0,0,1,.827-.827h4.612a.824.824,0,0,1,.827.827v4.612a.824.824,0,0,1-.827.827H17.049a.8.8,0,0,1-.461-.16l.758,6.932a2.509,2.509,0,0,1-.13,1.089h12.36a13.163,13.163,0,0,1,.678-1.86A13.712,13.712,0,0,1,33.819,33.2Zm-1.494-2.076a.829.829,0,0,1-.827.827H26.885a.829.829,0,0,1-.827-.827V26.51a.829.829,0,0,1,.827-.827H31.5a.829.829,0,0,1,.827.827Z" transform="translate(-2.345 -3.425)" fill="#fff"/>
      <path id="Path_115" data-name="Path 115" d="M47.2,34.36v.43A12.1,12.1,0,0,1,35.106,46.882H35L40.868,41.2a.827.827,0,0,0-1.149-1.19L33.85,45.692v-.066a11.791,11.791,0,0,1,1.083-4.992,12.074,12.074,0,0,1,11.01-7.1h.43A.824.824,0,0,1,47.2,34.36Z" transform="translate(-5.524 -5.414)" fill="#fff"/>
    </g>
  </g>
</svg>
