<svg xmlns="http://www.w3.org/2000/svg" xmlns:xlink="http://www.w3.org/1999/xlink" width="96" height="96" viewBox="0 0 96 96">
  <defs>
    <filter id="Ellipse_10" x="0" y="0" width="96" height="96" filterUnits="userSpaceOnUse">
      <feOffset dy="3" input="SourceAlpha"/>
      <feGaussianBlur stdDeviation="3" result="blur"/>
      <feFlood flood-color="#ffba00" flood-opacity="0.271"/>
      <feComposite operator="in" in2="blur"/>
      <feComposite in="SourceGraphic"/>
    </filter>
  </defs>
  <g id="food" transform="translate(-323 -122)">
    <g transform="matrix(1, 0, 0, 1, 323, 122)" filter="url(#Ellipse_10)">
      <circle id="Ellipse_10-2" data-name="Ellipse 10" cx="39" cy="39" r="39" transform="translate(9 6)" fill="#ffb001"/>
    </g>
    <g id="Group_38" data-name="Group 38" transform="translate(347.947 137.947)">
      <path id="Path_121" data-name="Path 121" d="M0,0H50.107V50.107H0Z" fill="none"/>
      <path id="Path_122" data-name="Path 122" d="M4.088,30.053h37.58a2.088,2.088,0,1,1,0,4.176H4.088a2.088,2.088,0,1,1,0-4.176ZM26.719,10.825a4.308,4.308,0,0,0,.334-1.649,4.176,4.176,0,0,0-8.351,0,4.308,4.308,0,0,0,.334,1.649A18.815,18.815,0,0,0,4.088,27.966h37.58A18.815,18.815,0,0,0,26.719,10.825Z" transform="translate(2.176 5.439)" fill="#fff"/>
    </g>
  </g>
</svg>
