<svg xmlns="http://www.w3.org/2000/svg" xmlns:xlink="http://www.w3.org/1999/xlink" width="307.71" height="343.731" viewBox="0 0 307.71 343.731">
  <defs>
    <clipPath id="clip-path">
      <path id="Path_208" data-name="Path 208" d="M161.66,49.49c-67.34,11.63-115,73.32-107.59,141.25C56,208,61,223.2,71.07,233c40.29,39,208,46.87,249.54-13.13S350.27,54.15,292,41.21C263.3,34.82,209.16,41.29,161.66,49.49Z" fill="#161e16"/>
    </clipPath>
  </defs>
  <g id="graphic-service" transform="translate(-1036 -384.233)">
    <g id="Customer_Service_Two_Color" data-name="Customer Service_Two Color" transform="translate(982.689 464.378)">
      <circle id="Ellipse_20" data-name="Ellipse 20" cx="22.17" cy="22.17" r="22.17" transform="translate(151.17 42.14)" fill="#c7c9c9"/>
      <circle id="Ellipse_21" data-name="Ellipse 21" cx="15.58" cy="15.58" r="15.58" transform="translate(157.76 48.73)" fill="#e6e6e6"/>
      <path id="Path_186" data-name="Path 186" d="M173.34,53.87V64.31l6.28,5.25" fill="none" stroke="#898989" stroke-linecap="round" stroke-linejoin="round" stroke-width="2"/>
      <g id="Group_42" data-name="Group 42" clip-path="url(#clip-path)">
        <path id="Path_187" data-name="Path 187" d="M307.22,242.32s.48,14.84-10.24,18.33-47.39,9.32-65.73-1.74-7.1-25.62,8.53-24.45S307.22,242.32,307.22,242.32Z" fill="#ffd200"/>
        <path id="Path_188" data-name="Path 188" d="M291.55,123.86s-3.25-19.19,10.72-23.57,34.05.28,32.31,21.24-27.36,120.79-27.36,120.79l-29.11-2S300.91,167.52,291.55,123.86Z" fill="#f8d210"/>
        <path id="Path_189" data-name="Path 189" d="M261.61,150l28.77,6.79L281,197.16a16.41,16.41,0,0,1-20.53,12L207.87,194s-7.18,7-13.39,4.27,6-12.61,12-12.42,54,4.66,54,4.66Z" fill="#f4a28c"/>
        <path id="Path_190" data-name="Path 190" d="M261.61,150l28.77,6.79L281,197.16a16.41,16.41,0,0,1-20.53,12L207.87,194s-7.18,7-13.39,4.27,6-12.61,12-12.42,54,4.66,54,4.66Z" opacity="0.08"/>
        <path id="Path_191" data-name="Path 191" d="M261.02,84.98l7.04,24.82-12.71,5.81.54-21.42Z" fill="#f4a28c"/>
        <path id="Path_192" data-name="Path 192" d="M255.72,98.37a10.43,10.43,0,0,0,4.73-3.65s.4,5.25-4.72,11.09Z" fill="#ce8172" opacity="0.31"/>
        <path id="Path_193" data-name="Path 193" d="M244.92,85.79s.78,8.73,3.25,14.2a4.39,4.39,0,0,0,5.84,2.18c2.74-1.28,6.06-3.8,6.21-8.53l1.24-8s.61-5-4.88-7.68S244.18,80.49,244.92,85.79Z" fill="#f4a28c"/>
        <path id="Path_194" data-name="Path 194" d="M245.7,91.27,243.88,95a1.41,1.41,0,0,0,1.25,2h3.41Z" fill="#f4a28c"/>
        <path id="Path_195" data-name="Path 195" d="M295.38,125.89s9.59,3.47,9.86,24.11-12.52,57-12.33,75.91-23.14,41.27-58.26,20.77,29.07-27.51,29.07-27.51Z" fill="#f8d210" opacity="0.08"/>
        <path id="Path_196" data-name="Path 196" d="M286.07,207.79s4.27,26.09-8,32.49-43.46,6.4-43.46,6.4l4.46,34.06H193.93l-1.16-66.36,49.44-6.59Z" fill="#24285b"/>
        <rect id="Rectangle_44" data-name="Rectangle 44" width="139.13" height="13.17" transform="translate(80.78 201.21)" fill="#e6e6e6"/>
        <path id="Path_197" data-name="Path 197" d="M123.85,139.87,96.49,201.21h41.92v-5.46l-29.69-2.91,19.21-48.9Z" fill="#e6e6e6"/>
        <path id="Path_198" data-name="Path 198" d="M140.61,181.9l-6.33-.04L112.77,114l4.79-4.79Z" fill="#24285b"/>
        <rect id="Rectangle_45" data-name="Rectangle 45" width="43.85" height="4.88" transform="translate(156.45 196.33)" fill="#f8d210"/>
        <path id="Path_199" data-name="Path 199" d="M244.87,81.51s-2.41,9.31,10.54,10l8.37,3.17S267.2,87,265.31,80.3,247.42,67.83,244.87,81.51Z" fill="#24285b"/>
        <circle id="Ellipse_22" data-name="Ellipse 22" cx="5.28" cy="5.28" r="5.28" transform="translate(257.5 65.64)" fill="#24285b"/>
        <path id="Path_201" data-name="Path 201" d="M255.41,91.55s-.53-3.33,2-3.52,3.33,4.62,0,5.68Z" fill="#f4a28c"/>
        <path id="Path_202" data-name="Path 202" d="M255.35,115.61l12.71-5.81s20.72-.2,27.32,16.09-9.31,81.9-9.31,81.9H242.21a356.052,356.052,0,0,0-5.82-45C231.74,139.48,235.89,130.93,255.35,115.61Z" fill="#ec434a"/>
        <path id="Path_203" data-name="Path 203" d="M267,122.1a29.2,29.2,0,0,0-11.92,23.45c.06,15.56,3.52,44.86-7.1,44.68l-6.86,4.71,1.06,12.85h29s12.88-.94,15-36.21S267,122.1,267,122.1Z" opacity="0.08"/>
        <path id="Path_204" data-name="Path 204" d="M262.78,141.66l28.77,6.79-9.42,40.36a16.41,16.41,0,0,1-20.53,12L209,185.66s-7.18,7-13.38,4.27,6-12.62,12-12.42,54,4.66,54,4.66Z" fill="#f4a28c"/>
        <rect id="Rectangle_46" data-name="Rectangle 46" width="3.93" height="12.08" transform="translate(208.4 176.25)" fill="#f8d210"/>
        <path id="Path_205" data-name="Path 205" d="M252.39,118l-.56-8.18,16.23-4,2.1,4.09S266.64,117.44,252.39,118Z" fill="#f55359"/>
        <rect id="Rectangle_47" data-name="Rectangle 47" width="110.89" height="66.36" transform="translate(94.16 214.38)" fill="#c7c9c9"/>
        <path id="Path_206" data-name="Path 206" d="M262.78,141.66s.66-22.12,9.43-24.28,25.6-.83,19.34,31.07Z" fill="#cf2d33"/>
        <path id="Path_207" data-name="Path 207" d="M262.78,141.66s.66-22.12,9.43-24.28,25.6-.83,19.34,31.07Z" fill="#e4131c" opacity="0.44"/>
      </g>
      <path id="Path_209" data-name="Path 209" d="M94.16,214.38v20.71l110.9-13.28v-7.43Z" opacity="0.08"/>
    </g>
    <circle id="Ellipse_24" data-name="Ellipse 24" cx="52.5" cy="52.5" r="52.5" transform="translate(1177.017 398.846) rotate(-8)" fill="rgba(47,243,224,0.22)"/>
    <path id="Polygon_5" data-name="Polygon 5" d="M24,0,48,41H0Z" transform="translate(1093.202 439.213) rotate(47)" fill="rgba(245,23,32,0.34)"/>
    <path id="Polygon_6" data-name="Polygon 6" d="M24,0,48,41H0Z" transform="matrix(0.946, -0.326, 0.326, 0.946, 1279.755, 517.993)" fill="rgba(248,210,16,0.49)"/>
    <g id="Group_43" data-name="Group 43" transform="matrix(0.839, -0.545, 0.545, 0.839, 1049.634, 533.861)">
      <path id="Path_210" data-name="Path 210" d="M0,42.907H45.424V6H0Zm1.419-1.419V13.1H44v28.39ZM44,7.419v4.258H1.419V7.419Z" fill="rgba(0,0,0,0.26)"/>
      <path id="Path_211" data-name="Path 211" d="M29.53,40.975l1.278,1.7H29.388c-2.8,0-4.968-3.052-4.968-5.678H23c0,3.351,2.732,7.1,6.388,7.1h1.419L29.53,45.8l1.207.852,2.2-2.839v-.852l-2.2-2.839Z" transform="translate(-6.676 -8.998)" fill="rgba(0,0,0,0.26)"/>
      <path id="Path_212" data-name="Path 212" d="M32.549,25.955H31.129l1.278-1.7L31.2,23.4,29,26.239v.852l2.2,2.839,1.171-.852-1.242-1.7h1.419c2.8,0,4.968,3.052,4.968,5.678h1.419C38.936,29.7,36.2,25.955,32.549,25.955Z" transform="translate(-8.417 -5.05)" fill="rgba(0,0,0,0.26)"/>
      <path id="Path_213" data-name="Path 213" d="M6,10H8.839v1.419H6Z" transform="translate(-1.742 -1.161)" fill="rgba(0,0,0,0.26)"/>
      <path id="Path_214" data-name="Path 214" d="M14,10h2.839v1.419H14Z" transform="translate(-4.064 -1.161)" fill="rgba(0,0,0,0.26)"/>
      <path id="Path_215" data-name="Path 215" d="M22,10h2.839v1.419H22Z" transform="translate(-6.386 -1.161)" fill="rgba(0,0,0,0.26)"/>
    </g>
    <path id="Path_216" data-name="Path 216" d="M129.792,0H110.281A3.285,3.285,0,0,0,107,3.281V41.516a3.285,3.285,0,0,0,3.281,3.281h19.511a3.285,3.285,0,0,0,3.281-3.281V3.281A3.285,3.285,0,0,0,129.792,0Zm-5.305,1.312-.475.95a.653.653,0,0,1-.587.363h-6.777a.653.653,0,0,1-.587-.363l-.475-.95Zm7.274,40.2a1.971,1.971,0,0,1-1.969,1.969H110.281a1.971,1.971,0,0,1-1.969-1.969V3.281a1.971,1.971,0,0,1,1.969-1.969h3.838l.768,1.537a1.958,1.958,0,0,0,1.761,1.088h6.777a1.958,1.958,0,0,0,1.761-1.088l.768-1.537h3.838a1.971,1.971,0,0,1,1.969,1.969Zm-6.606-.656H114.831a.656.656,0,0,0,0,1.312h10.324a.656.656,0,0,0,0-1.312Zm-5.775-6.428v-1.4a1.27,1.27,0,0,0-1.269-1.269h-5.687a1.27,1.27,0,0,0-1.269,1.269v1.4a1.27,1.27,0,0,0,1.269,1.269h5.687a1.27,1.27,0,0,0,1.269-1.269Zm-1.312-.044h-5.6V33.076h5.6Zm9.581-2.625h-5.687a1.27,1.27,0,0,0-1.269,1.269v1.4a1.27,1.27,0,0,0,1.269,1.269h5.687a1.27,1.27,0,0,0,1.269-1.269v-1.4a1.27,1.27,0,0,0-1.269-1.269Zm-.044,2.625h-5.6V33.076h5.6Zm-.437-24.824H112.906a1.971,1.971,0,0,0-1.969,1.969v2.625a1.971,1.971,0,0,0,1.969,1.969h14.262a1.971,1.971,0,0,0,1.969-1.969V11.532a1.971,1.971,0,0,0-1.969-1.969Zm.656,4.593a.657.657,0,0,1-.656.656H112.906a.657.657,0,0,1-.656-.656V11.532a.657.657,0,0,1,.656-.656h14.262a.657.657,0,0,1,.656.656Zm-16.23,5.906a.656.656,0,1,0-.656-.656.656.656,0,0,0,.656.656Zm0,3.937a.656.656,0,1,0-.656-.656.656.656,0,0,0,.656.656Zm16.887,2.625H114.218a.656.656,0,0,0,0,1.312H128.48a.656.656,0,1,0,0-1.312Zm0-7.875H114.218a.656.656,0,0,0,0,1.312H128.48a.656.656,0,1,0,0-1.312Zm-16.23,8.531a.656.656,0,1,0-.656.656.656.656,0,0,0,.656-.656Zm16.23-4.593H114.218a.656.656,0,0,0,0,1.312H128.48a.656.656,0,1,0,0-1.312Z" transform="matrix(0.921, -0.391, 0.391, 0.921, 1019.754, 447.284)" opacity="0.26"/>
    <g id="layer1" transform="translate(1693.397 -556.543) rotate(22)" opacity="0.25">
      <path id="rect10432" d="M9.6,2a.773.773,0,0,0-.608.748v8.646c-.792.863-1.379,1.5-1.823,2.056A4.834,4.834,0,0,0,6,16.769a3.19,3.19,0,0,0,2.991,3.178V43.128a.777.777,0,0,0,.748.748H32.172a.777.777,0,0,0,.748-.748V19.947a3.19,3.19,0,0,0,2.991-3.178v-.14a4.689,4.689,0,0,0-.981-3.178,28.408,28.408,0,0,0-2.01-2.2V2.748A.777.777,0,0,0,32.172,2H9.6Zm.888,1.5H31.424V9.711c-.505-.513-.855-.89-1.5-1.542a.748.748,0,0,0-.28-.14V7.982H12.309a.748.748,0,0,0-.093,0,.748.748,0,0,0-.374.234c-.557.642-.9.991-1.355,1.5Zm7.478,1.5v1.5h5.982v-1.5ZM12.73,9.478H29.088c1.952,1.987,3.119,3.213,3.926,4.113H9.038C9.849,12.678,10.985,11.473,12.73,9.478ZM7.823,15.086H34.182a2.986,2.986,0,0,1,.234,1.542v.14a1.651,1.651,0,0,1-1.636,1.683,1.613,1.613,0,0,1-1.589-1.683.748.748,0,1,0-1.5,0,1.636,1.636,0,1,1-3.272,0,.748.748,0,0,0-1.5,0,1.613,1.613,0,0,1-1.589,1.683A1.651,1.651,0,0,1,21.7,16.769a.748.748,0,1,0-1.5,0,1.651,1.651,0,0,1-1.636,1.683,1.613,1.613,0,0,1-1.589-1.683.748.748,0,0,0-.047-.14.748.748,0,0,0-.187-.374.748.748,0,0,0-.093-.047.563.563,0,0,0-.467-.187.944.944,0,0,0-.7.748,1.651,1.651,0,0,1-1.636,1.683,1.564,1.564,0,0,1-1.122-.514,1.668,1.668,0,0,1-.514-1.168.748.748,0,0,0-1.5,0,1.629,1.629,0,0,1-.467,1.168,1.564,1.564,0,0,1-1.122.514A1.651,1.651,0,0,1,7.5,16.769,2.917,2.917,0,0,1,7.823,15.086Zm13.133,3.458a2.933,2.933,0,0,0,2.384,1.4,2.9,2.9,0,0,0,2.337-1.355,3.111,3.111,0,0,0,2.01,1.309V35.65H14.226V19.9a3.112,3.112,0,0,0,2.01-1.309,2.9,2.9,0,0,0,2.337,1.355A2.933,2.933,0,0,0,20.956,18.545Zm-9.487.047c.09.122.081.312.187.421a3.2,3.2,0,0,0,1.075.748V37.146H29.181V19.666a3.529,3.529,0,0,0,1.262-1.075,3.775,3.775,0,0,0,.981.981V42.38H10.487V19.62a3.223,3.223,0,0,0,.841-.608C11.431,18.907,11.38,18.71,11.468,18.591Zm9.254,19.3a1.617,1.617,0,1,0,.234,0A1.5,1.5,0,0,0,20.722,37.893Z" transform="translate(0 1020.362)"/>
    </g>
  </g>
</svg>
