<svg xmlns="http://www.w3.org/2000/svg" xmlns:xlink="http://www.w3.org/1999/xlink" width="96" height="96" viewBox="0 0 96 96">
  <defs>
    <filter id="Ellipse_10" x="0" y="0" width="96" height="96" filterUnits="userSpaceOnUse">
      <feOffset dy="3" input="SourceAlpha"/>
      <feGaussianBlur stdDeviation="3" result="blur"/>
      <feFlood flood-color="#2e8f32" flood-opacity="0.38"/>
      <feComposite operator="in" in2="blur"/>
      <feComposite in="SourceGraphic"/>
    </filter>
  </defs>
  <g id="hospital" transform="translate(-323 -122)">
    <g transform="matrix(1, 0, 0, 1, 323, 122)" filter="url(#Ellipse_10)">
      <circle id="Ellipse_10-2" data-name="Ellipse 10" cx="39" cy="39" r="39" transform="translate(9 6)" fill="#50d979"/>
    </g>
    <g id="Group_35" data-name="Group 35" transform="translate(346.856 143.856)">
      <path id="Path_108" data-name="Path 108" d="M43.089,10.889a.71.71,0,0,0-.51-.216c-11.47,0-17.906-5.445-17.97-5.5a.711.711,0,0,0-.93,0c-.063.055-6.464,5.5-17.969,5.5A.71.71,0,0,0,5,11.406c.009.258,1.1,25.924,18.92,31.845a.708.708,0,0,0,.447,0c17.815-5.921,18.91-31.587,18.92-31.845A.708.708,0,0,0,43.089,10.889ZM24.144,41.83C9.111,36.64,6.782,16.208,6.464,12.083c9.937-.195,16.007-4.2,17.679-5.467,1.673,1.264,7.743,5.272,17.681,5.467C41.508,16.208,39.189,36.636,24.144,41.83Z" fill="#fff"/>
      <path id="Path_109" data-name="Path 109" d="M41.443,14.488a.7.7,0,0,0-.5-.248A30.486,30.486,0,0,1,25.7,9.39a.706.706,0,0,0-.794,0A30.514,30.514,0,0,1,9.665,14.24a.718.718,0,0,0-.5.248A.741.741,0,0,0,9,15.027c.723,6.509,3.722,22.15,16.059,26.815a.745.745,0,0,0,.5,0c12.309-4.651,15.329-20.306,16.052-26.815A.711.711,0,0,0,41.443,14.488ZM31.687,26.9a.079.079,0,0,1-.078.078h-4.63a.079.079,0,0,0-.078.078v4.63a.079.079,0,0,1-.078.078H23.789a.079.079,0,0,1-.078-.078v-4.63a.079.079,0,0,0-.078-.078H19a.079.079,0,0,1-.078-.078V23.868A.079.079,0,0,1,19,23.79h4.63a.079.079,0,0,0,.078-.078v-4.63A.079.079,0,0,1,23.789,19h3.035a.079.079,0,0,1,.078.078v4.63a.079.079,0,0,0,.078.078h4.63a.079.079,0,0,1,.078.078Z" transform="translate(-1.162 -1.242)" fill="#fff"/>
    </g>
  </g>
</svg>
