<svg xmlns="http://www.w3.org/2000/svg" xmlns:xlink="http://www.w3.org/1999/xlink" width="96" height="96" viewBox="0 0 96 96">
  <defs>
    <filter id="Ellipse_10" x="0" y="0" width="96" height="96" filterUnits="userSpaceOnUse">
      <feOffset dy="3" input="SourceAlpha"/>
      <feGaussianBlur stdDeviation="3" result="blur"/>
      <feFlood flood-color="#019992" flood-opacity="0.161"/>
      <feComposite operator="in" in2="blur"/>
      <feComposite in="SourceGraphic"/>
    </filter>
  </defs>
  <g id="lean" transform="translate(-323 -122)">
    <g transform="matrix(1, 0, 0, 1, 323, 122)" filter="url(#Ellipse_10)">
      <circle id="Ellipse_10-2" data-name="Ellipse 10" cx="39" cy="39" r="39" transform="translate(9 6)" fill="#019992"/>
    </g>
    <path id="Path_128" data-name="Path 128" d="M21.354,1a5.808,5.808,0,0,0-5.179,8.45L6.952,17.31a4.269,4.269,0,0,0-1.59-.318,4.362,4.362,0,0,0,0,8.723,4.186,4.186,0,0,0,1.318-.227l8.087,13.448a3.516,3.516,0,0,0-.681,2.044,3.632,3.632,0,0,0,7.224.545l14.584-4.861a3.681,3.681,0,0,0,5.815-2.953,3.548,3.548,0,0,0-.727-2.135l1.408-18.037A4.36,4.36,0,1,0,37.073,6.77L26.9,5.271A5.815,5.815,0,0,0,21.354,1Zm5.815,5.77,9.086,1.318a4.256,4.256,0,0,0-.363,1.636,4.342,4.342,0,0,0,1.5,3.271l-8.95,8.95a3.628,3.628,0,0,0-5.27,1.5L9.632,22.217a4.654,4.654,0,0,0,.091-.863,4.275,4.275,0,0,0-1.454-3.226l8.723-7.5a5.732,5.732,0,0,0,4.362,2,5.826,5.826,0,0,0,5.815-5.815C27.169,6.8,27.169,6.786,27.169,6.77Zm11.494,7a4.059,4.059,0,0,0,2.181.273l-1.227,16.4a3.511,3.511,0,0,0-3.635.318l-6.451-3.907a3.619,3.619,0,0,0,.545-1.863,3.524,3.524,0,0,0-.636-2ZM9.087,23.625l13.721,1.227c0,.046,0,.09,0,.136a3.646,3.646,0,0,0,3.635,3.635,3.59,3.59,0,0,0,2.135-.681L35.029,31.8a3.508,3.508,0,0,0-.591,1.908,3.6,3.6,0,0,0,.454,1.726L21.172,39.981a3.545,3.545,0,0,0-5.316-2.09L8.042,24.807A4.348,4.348,0,0,0,9.087,23.625Z" transform="translate(348.192 144.192)" fill="#fff"/>
  </g>
</svg>
