<svg xmlns="http://www.w3.org/2000/svg" xmlns:xlink="http://www.w3.org/1999/xlink" width="96" height="96" viewBox="0 0 96 96">
  <defs>
    <filter id="Ellipse_10" x="0" y="0" width="96" height="96" filterUnits="userSpaceOnUse">
      <feOffset dy="3" input="SourceAlpha"/>
      <feGaussianBlur stdDeviation="3" result="blur"/>
      <feFlood flood-color="#019992" flood-opacity="0.161"/>
      <feComposite operator="in" in2="blur"/>
      <feComposite in="SourceGraphic"/>
    </filter>
  </defs>
  <g id="logistic" transform="translate(-323 -122)">
    <g transform="matrix(1, 0, 0, 1, 323, 122)" filter="url(#Ellipse_10)">
      <circle id="Ellipse_10-2" data-name="Ellipse 10" cx="39" cy="39" r="39" transform="translate(9 6)" fill="#019992"/>
    </g>
    <g id="Group_39" data-name="Group 39" transform="translate(340.689 135.933)">
      <path id="Path_126" data-name="Path 126" d="M27.72,39.584a3.86,3.86,0,0,0-7.71,0h0a3.861,3.861,0,1,0,7.719.2A1.645,1.645,0,0,0,27.72,39.584Zm-4.593,1.651a1.5,1.5,0,0,1-.854-1.308,1.522,1.522,0,0,1,0-.343,1.587,1.587,0,0,1,3.145,0,1.243,1.243,0,0,1,0,.223,1.605,1.605,0,0,1-2.292,1.429ZM52.25,39.584a3.86,3.86,0,0,0-7.71,0h0a3.861,3.861,0,1,0,7.719.2A1.645,1.645,0,0,0,52.25,39.584Zm-4.593,1.651a1.5,1.5,0,0,1-.854-1.308,1.521,1.521,0,0,1,0-.343,1.587,1.587,0,0,1,3.145,0,1.244,1.244,0,0,1,0,.223,1.605,1.605,0,0,1-2.292,1.429ZM24.955,26.92q-.362,1.16-.863,2.366h.863a23.343,23.343,0,0,1,0-2.366Z" transform="translate(-1.134 -0.572)" fill="#fff"/>
      <path id="Path_127" data-name="Path 127" d="M55.05,30.273l-2.5-3.34a2.663,2.663,0,0,0-2.143-1.095H47.164a.492.492,0,0,1-.492-.5l.084-3.294A2.709,2.709,0,0,0,44.168,19H16.5a2.672,2.672,0,0,0-2.6,2.514L13.746,23.3H9.784a.891.891,0,1,0,0,1.781H13.5l-.213,2.477H7.511a.891.891,0,1,0,0,1.781H13.17l-.148,2.644H5.238a.891.891,0,1,0,0,1.781H12.8l-.353,4.092a1.011,1.011,0,0,0,.928,1.123h3.795a.5.5,0,0,0,.5-.445,5,5,0,0,1,9.909,0,.51.51,0,0,0,.5.445H41.811a.5.5,0,0,0,.5-.445,5,5,0,0,1,9.909,0,.51.51,0,0,0,.5.445h2.19a.779.779,0,0,0,.752-.807V32.119A3.08,3.08,0,0,0,55.05,30.273Zm-35.683.38H18.115l1.03-5.567h2.561l-.223,1.2h-1.3L20,27.3H21.14l-.213,1.16H19.795Zm4.546,0v-.928H22.578l-.39.928H20.862l2.514-5.567H24.8l.445,5.567Zm5.233-4.231a1.744,1.744,0,0,0-.854-.306.64.64,0,0,0-.39.111.482.482,0,0,0-.195.315q-.065.353.482.789a2.913,2.913,0,0,1,.631.733,1.457,1.457,0,0,1,.186,1.086,1.948,1.948,0,0,1-.724,1.2,2.19,2.19,0,0,1-2.375.223l.241-1.3a1.8,1.8,0,0,0,.928.353.612.612,0,0,0,.4-.13.566.566,0,0,0,.2-.353.445.445,0,0,0-.056-.315,1.6,1.6,0,0,0-.315-.353,3.284,3.284,0,0,1-.779-.928,1.5,1.5,0,0,1-.121-.928,1.958,1.958,0,0,1,.677-1.178,1.856,1.856,0,0,1,1.262-.455,2.347,2.347,0,0,1,1.021.232Zm3.878-.046h-.872l-.8,4.3h-1.28l.8-4.3H30l.232-1.271h3.025Zm5.567,1.976a6.94,6.94,0,0,1-.807,2.57A7.051,7.051,0,0,1,36.04,33.01h0a1.586,1.586,0,0,1-1.178.343h-.111a1.6,1.6,0,0,1-.724-2.783l.1-.074a3.887,3.887,0,0,0,1.633-2.505,4.416,4.416,0,0,0-.649-3.062A5.353,5.353,0,0,0,33.09,22.98a6.958,6.958,0,0,0-5.112-.575,6.374,6.374,0,0,1,2.2-1.16,6.494,6.494,0,0,1,2.514-.232,6.624,6.624,0,0,1,2.44.761,6.717,6.717,0,0,1,1.985,1.661A6.791,6.791,0,0,1,38.35,25.68a6.875,6.875,0,0,1,.269,2.644Zm14.436,2.96H47.433a.4.4,0,0,1-.4-.4V28.185a.529.529,0,0,1,.529-.529h2.848a.529.529,0,0,1,.427.213l2.357,3.192a.167.167,0,0,1-.139.223Z" fill="#fff"/>
    </g>
  </g>
</svg>
