<svg xmlns="http://www.w3.org/2000/svg" xmlns:xlink="http://www.w3.org/1999/xlink" width="96" height="96" viewBox="0 0 96 96">
  <defs>
    <filter id="Ellipse_10" x="0" y="0" width="96" height="96" filterUnits="userSpaceOnUse">
      <feOffset dy="3" input="SourceAlpha"/>
      <feGaussianBlur stdDeviation="3" result="blur"/>
      <feFlood flood-color="#ffba00" flood-opacity="0.271"/>
      <feComposite operator="in" in2="blur"/>
      <feComposite in="SourceGraphic"/>
    </filter>
  </defs>
  <g id="nbb" transform="translate(-323 -122)">
    <g transform="matrix(1, 0, 0, 1, 323, 122)" filter="url(#Ellipse_10)">
      <circle id="Ellipse_10-2" data-name="Ellipse 10" cx="39" cy="39" r="39" transform="translate(9 6)" fill="#ffb001"/>
    </g>
    <g id="Gear" transform="translate(345.942 141.885)">
      <path id="Path_118" data-name="Path 118" d="M47.573,30.275l.544-3.673-5.073-2.536a17.474,17.474,0,0,0-.428-2.932L46.766,17.3,45.235,14l-5.633.609a19.336,19.336,0,0,0-1.944-2.24l1.4-5.534L35.929,4.812l-4.4,3.558a16.734,16.734,0,0,0-2.849-.856L26.92,2.16H23.2L21.435,7.513a16.734,16.734,0,0,0-2.849.856l-4.4-3.558L11.059,6.838l1.416,5.485a19.336,19.336,0,0,0-1.943,2.207L4.9,13.92,3.367,17.214l4.151,3.838a17.475,17.475,0,0,0-.428,2.932L2,26.6l.527,3.673,5.583.988a17.425,17.425,0,0,0,1.235,2.7l-2.9,4.941,2.421,2.8,5.254-2.256A18.892,18.892,0,0,0,16.609,41.1l.214,5.616L20.4,47.75l3.179-4.678h2.965l3.294,4.645,3.459-1,.181-5.649a18.891,18.891,0,0,0,2.487-1.647L41.2,41.59l2.421-2.8-2.9-4.941a17.426,17.426,0,0,0,1.235-2.7ZM42.9,27.689h0Zm-35.774,0h.1Zm1.466-9.981Zm26.353-7.79v.1h0ZM25.058,7.035v.115h0ZM15.341,9.983h0v-.1ZM11.372,37.028v-.1h0Zm8.581,5.518v-.1h0Zm10.212,0v-.082h0Zm8.482-5.567h0v.1Zm-13.588,2.9A14.724,14.724,0,1,1,39.783,25.153,14.724,14.724,0,0,1,25.058,39.877Zm16.47-22.169Z" transform="translate(0 0)" fill="#fff"/>
      <path id="Path_119" data-name="Path 119" d="M29.23,11.3l-.576.445a11.694,11.694,0,0,0-5.139-2.569V8.48H18.574v.659a11.793,11.793,0,0,0-5.221,2.52l-.593-.445-3,3.821.609.478A11.71,11.71,0,0,0,9.12,20.767v.313l-.84.2,1.186,4.776.824-.247a11.793,11.793,0,0,0,3.492,4.332l-.428.906L17.7,33.2l.445-.922a11.249,11.249,0,0,0,2.8.346,12.27,12.27,0,0,0,2.767-.231l.445.939,4.414-2.125-.428-.906a12.056,12.056,0,0,0,3.525-4.282l.939.214,1.087-4.776-.856-.2a3.476,3.476,0,0,0,0-.412,11.891,11.891,0,0,0-1.186-5.139l.626-.511Zm-18.875,9.47a10.424,10.424,0,0,1,1-4.462L15.51,19.6l-5.139,1.268ZM14.407,29.1a10.656,10.656,0,0,1-2.8-3.475l5.04-1.153Zm0-16.586a10.656,10.656,0,0,1,4.233-2.042v5.419ZM21,31.456a10.047,10.047,0,0,1-2.24-.247L21,26.581l2.207,4.6A10.311,10.311,0,0,1,21,31.39Zm0-7.725a2.833,2.833,0,1,0,0-.066Zm2.52-7.807V10.44a10.623,10.623,0,0,1,4.2,2.092ZM27.583,29.1l-2.207-4.579,5.056,1.153A10.821,10.821,0,0,1,27.583,29.1Zm4.035-8.235-5.089-1.153L30.7,16.419a10.673,10.673,0,0,1,.939,4.348Z" transform="translate(4.063 4.089)" fill="#fff"/>
    </g>
  </g>
</svg>
