<svg xmlns="http://www.w3.org/2000/svg" xmlns:xlink="http://www.w3.org/1999/xlink" width="96" height="96" viewBox="0 0 96 96">
  <defs>
    <filter id="Ellipse_10" x="0" y="0" width="96" height="96" filterUnits="userSpaceOnUse">
      <feOffset dy="3" input="SourceAlpha"/>
      <feGaussianBlur stdDeviation="3" result="blur"/>
      <feFlood flood-color="#ffba00" flood-opacity="0.271"/>
      <feComposite operator="in" in2="blur"/>
      <feComposite in="SourceGraphic"/>
    </filter>
  </defs>
  <g id="newsbell" transform="translate(-323 -122)">
    <g transform="matrix(1, 0, 0, 1, 323, 122)" filter="url(#Ellipse_10)">
      <circle id="Ellipse_10-2" data-name="Ellipse 10" cx="39" cy="39" r="39" transform="translate(9 6)" fill="#ffb001"/>
    </g>
    <path id="Path_120" data-name="Path 120" d="M27.874,16.211C23.211,6.175,20.785,2.362,13.166,2.521c-2.714.055-2.064-1.968-4.134-1.2S8.74,3.211,6.625,4.947C.689,9.821,1.235,14.329,3.988,25.074c1.16,4.526-2.8,4.747-1.231,9.133,1.143,3.2,9.57,4.539,18.459,1.242S35.71,25.6,34.566,22.4C33,18.015,29.84,20.437,27.874,16.211ZM20.253,32.744c-7.94,2.945-14.465,1.215-14.741.444-.475-1.329,2.563-5.76,11.64-9.128S31.3,21.94,31.826,23.423c.313.877-3.631,6.373-11.573,9.321ZM17.7,25.6a29.826,29.826,0,0,0-8.9,4.886c1.315,1.194,3.778,1.485,6.23.575,3.123-1.156,5.044-3.817,4.285-5.94l-.033-.074C18.766,25.213,18.24,25.395,17.7,25.6Z" transform="translate(355.64 147.6)" fill="#fff"/>
  </g>
</svg>
