<svg xmlns="http://www.w3.org/2000/svg" xmlns:xlink="http://www.w3.org/1999/xlink" width="96" height="96" viewBox="0 0 96 96">
  <defs>
    <filter id="Ellipse_10" x="0" y="0" width="96" height="96" filterUnits="userSpaceOnUse">
      <feOffset dy="3" input="SourceAlpha"/>
      <feGaussianBlur stdDeviation="3" result="blur"/>
      <feFlood flood-color="#ffba00" flood-opacity="0.271"/>
      <feComposite operator="in" in2="blur"/>
      <feComposite in="SourceGraphic"/>
    </filter>
  </defs>
  <g id="nirman" transform="translate(-323 -122)">
    <g transform="matrix(1, 0, 0, 1, 323, 122)" filter="url(#Ellipse_10)">
      <circle id="Ellipse_10-2" data-name="Ellipse 10" cx="39" cy="39" r="39" transform="translate(9 6)" fill="#ffb001"/>
    </g>
    <path id="Path_124" data-name="Path 124" d="M30.594,33.153H14.2a8.118,8.118,0,0,0-8.2,8.2V46.27a1.763,1.763,0,0,0,1.64,1.64H37.153a1.763,1.763,0,0,0,1.64-1.64V41.351A8.118,8.118,0,0,0,30.594,33.153Zm-8.526,8.2-2.132-4.919h3.607ZM22.4,2a1.763,1.763,0,0,0-1.64,1.64v1.8a11.472,11.472,0,0,0-9.838,11.313V18.4a1.763,1.763,0,0,0-1.64,1.64,1.763,1.763,0,0,0,1.64,1.64h1.8a9.807,9.807,0,0,0,19.347,0h1.8a1.763,1.763,0,0,0,1.64-1.64,1.763,1.763,0,0,0-1.64-1.64v-1.64A11.472,11.472,0,0,0,24.036,5.443V3.64A1.763,1.763,0,0,0,22.4,2ZM21.248,12.33a1.585,1.585,0,0,1,2.3,0,1.585,1.585,0,0,1,0,2.3,1.64,1.64,0,0,1-2.787-1.148A1.488,1.488,0,0,1,21.248,12.33Zm7.542,9.346a6.616,6.616,0,0,1-12.789,0Z" transform="translate(349.604 139.045)" fill="#fff"/>
  </g>
</svg>
