<svg xmlns="http://www.w3.org/2000/svg" xmlns:xlink="http://www.w3.org/1999/xlink" width="96" height="96" viewBox="0 0 96 96">
  <defs>
    <filter id="Ellipse_10" x="0" y="0" width="96" height="96" filterUnits="userSpaceOnUse">
      <feOffset dy="3" input="SourceAlpha"/>
      <feGaussianBlur stdDeviation="3" result="blur"/>
      <feFlood flood-color="#ffba00" flood-opacity="0.271"/>
      <feComposite operator="in" in2="blur"/>
      <feComposite in="SourceGraphic"/>
    </filter>
  </defs>
  <g id="plant" transform="translate(-323 -122)">
    <g transform="matrix(1, 0, 0, 1, 323, 122)" filter="url(#Ellipse_10)">
      <circle id="Ellipse_10-2" data-name="Ellipse 10" cx="39" cy="39" r="39" transform="translate(9 6)" fill="#ffb001"/>
    </g>
    <path id="Path_125" data-name="Path 125" d="M38.609,43.018a.875.875,0,0,1-.873.873H9.958a.873.873,0,1,1,0-1.745h1.484L12.6,38.131a11.779,11.779,0,0,1,10.377-8.4v-2.95a6.591,6.591,0,0,1-2.714.576,6.717,6.717,0,0,1-6.092-3.91l-.541-1.187a.887.887,0,0,1,.436-1.161l1.187-.541a6.688,6.688,0,0,1,7.724,1.588V10.509l-.384.175a8.715,8.715,0,0,1-3.657.8A8.869,8.869,0,0,1,10.909,6.32L10.167,4.7a.875.875,0,0,1,.428-1.161l1.632-.742A8.706,8.706,0,0,1,15.884,2a8.847,8.847,0,0,1,8.029,5.158l.663,1.466.026.044a.306.306,0,0,1,.052.122.555.555,0,0,1,.052.157.967.967,0,0,1,.017.166v6.249a8.845,8.845,0,0,1,7.121-3.6,8.706,8.706,0,0,1,3.657.794l1.623.742a.887.887,0,0,1,.436,1.161l-.742,1.623a8.859,8.859,0,0,1-8.038,5.158,8.706,8.706,0,0,1-3.657-.794l-.4-.183v5.071a.423.423,0,0,1,0,.148v4.25a11.758,11.758,0,0,1,10.368,8.4l1.161,4.015h1.484a.87.87,0,0,1,.873.873Z" transform="translate(348.068 142.055)" fill="#fff"/>
  </g>
</svg>
