<svg xmlns="http://www.w3.org/2000/svg" xmlns:xlink="http://www.w3.org/1999/xlink" width="96" height="96" viewBox="0 0 96 96">
  <defs>
    <filter id="Ellipse_10" x="0" y="0" width="96" height="96" filterUnits="userSpaceOnUse">
      <feOffset dy="3" input="SourceAlpha"/>
      <feGaussianBlur stdDeviation="3" result="blur"/>
      <feFlood flood-color="#2e8f32" flood-opacity="0.38"/>
      <feComposite operator="in" in2="blur"/>
      <feComposite in="SourceGraphic"/>
    </filter>
  </defs>
  <g id="school" transform="translate(-323 -122)">
    <g transform="matrix(1, 0, 0, 1, 323, 122)" filter="url(#Ellipse_10)">
      <circle id="Ellipse_10-2" data-name="Ellipse 10" cx="39" cy="39" r="39" transform="translate(9 6)" fill="#50d979"/>
    </g>
    <g id="layer1" transform="translate(343.174 -816.718)">
      <path id="rect6848-8" d="M34.575,964.862a3.888,3.888,0,1,0,3.888,3.888A3.879,3.879,0,0,0,34.575,964.862ZM16.8,969.305a3.888,3.888,0,1,0,3.888,3.888,3.879,3.879,0,0,0-3.888-3.888Zm20.549,4.443a6.17,6.17,0,0,0-3.332,1.111L26.8,980a1.568,1.568,0,1,0,1.666,2.638l4.721-3.124s3.112,6.674,1.944,9.789a.79.79,0,0,0-.069.278l-4.86,12.913a1.639,1.639,0,0,0,1.6,2.36,1.91,1.91,0,0,0,1.736-1.25l6.04-14.3s1.111,6.664,5.554,6.665h6.109a1.666,1.666,0,1,0,0-3.332h-5c-2.371,0-2.222-3.56-2.222-5.554,0-3.333-2.222-8.886-2.222-8.886l6.665,4.443c2.014,1.342,3.758-1.035,1.8-2.5l-7.359-5.276a4.4,4.4,0,0,0-3.332-1.111H37.351Zm-23.326,4.443A2.844,2.844,0,0,0,11.8,979.3l-4.721,4.721a2.479,2.479,0,0,0-.833,1.944c0,1.111,1.7,1.634,2.638.694l4.027-4.027c2.222,0,3.055,5.554,2.222,7.775L11.8,999.3c-.923,2.461,2.542,3.218,3.332,1.111l3.332-8.886a4.109,4.109,0,0,0,3.332,2.221h6.665a1.666,1.666,0,1,0,0-3.332H22.911c-1.111,0-1.111-2.221-1.111-3.332,0-4.443-2.222-8.886-4.443-8.886Z" fill="#fff"/>
    </g>
  </g>
</svg>
