<svg xmlns="http://www.w3.org/2000/svg" xmlns:xlink="http://www.w3.org/1999/xlink" width="96" height="96" viewBox="0 0 96 96">
  <defs>
    <filter id="Ellipse_10" x="0" y="0" width="96" height="96" filterUnits="userSpaceOnUse">
      <feOffset dy="3" input="SourceAlpha"/>
      <feGaussianBlur stdDeviation="3" result="blur"/>
      <feFlood flood-color="#2e8f32" flood-opacity="0.38"/>
      <feComposite operator="in" in2="blur"/>
      <feComposite in="SourceGraphic"/>
    </filter>
  </defs>
  <g id="utkarsh" transform="translate(-323 -122)">
    <g transform="matrix(1, 0, 0, 1, 323, 122)" filter="url(#Ellipse_10)">
      <circle id="Ellipse_10-2" data-name="Ellipse 10" cx="39" cy="39" r="39" transform="translate(9 6)" fill="#50d979"/>
    </g>
    <g id="Group_37" data-name="Group 37" transform="translate(347 143)">
      <path id="Path_116" data-name="Path 116" d="M0,0H48V48H0Z" fill="none"/>
      <path id="Path_117" data-name="Path 117" d="M24,23.09A26.362,26.362,0,0,0,6,16V38a26.362,26.362,0,0,1,18,7.09A26.362,26.362,0,0,1,42,38V16A26.362,26.362,0,0,0,24,23.09ZM24,16a6,6,0,1,0-6-6A6,6,0,0,0,24,16Z" fill="rgba(255,255,255,0.98)"/>
    </g>
  </g>
</svg>
