<svg xmlns="http://www.w3.org/2000/svg" xmlns:xlink="http://www.w3.org/1999/xlink" width="96" height="96" viewBox="0 0 96 96">
  <defs>
    <filter id="Ellipse_10" x="0" y="0" width="96" height="96" filterUnits="userSpaceOnUse">
      <feOffset dy="3" input="SourceAlpha"/>
      <feGaussianBlur stdDeviation="3" result="blur"/>
      <feFlood flood-color="#2e8f32" flood-opacity="0.38"/>
      <feComposite operator="in" in2="blur"/>
      <feComposite in="SourceGraphic"/>
    </filter>
  </defs>
  <g id="wayfish" transform="translate(-323 -122)">
    <g transform="matrix(1, 0, 0, 1, 323, 122)" filter="url(#Ellipse_10)">
      <circle id="Ellipse_10-2" data-name="Ellipse 10" cx="39" cy="39" r="39" transform="translate(9 6)" fill="#50d979"/>
    </g>
    <g id="Group_33" data-name="Group 33" transform="translate(352.855 148.855)">
      <path id="Path_106" data-name="Path 106" d="M13.3,10a27.146,27.146,0,0,1,19.25,7.977v0A27.142,27.142,0,0,1,13.3,25.951h0A11.281,11.281,0,0,1,13.3,10Zm6.488,7.977a1.6,1.6,0,1,0-1.6-1.6A1.595,1.595,0,0,0,19.792,17.977Z" transform="translate(5.734 -10)" fill="rgba(255,255,255,0.96)"/>
      <path id="Path_107" data-name="Path 107" d="M36.537,10.234a14.447,14.447,0,0,0,.218,16.054,7.17,7.17,0,0,0,1.662,14.146h.226A6.369,6.369,0,0,1,44.8,35.647l9.572,0a12.7,12.7,0,0,1-1.729,6.38,12.727,12.727,0,0,1,1.729,6.381H44.8a6.368,6.368,0,0,1-6.155-4.786h-.226a16.748,16.748,0,0,1-1.88-33.391Z" transform="translate(-21.666 -10.122)" fill="rgba(255,255,255,0.96)"/>
    </g>
  </g>
</svg>
